<?xml version="1.0" encoding="utf-8"?>
<!-- Generator: Adobe Illustrator 22.0.1, SVG Export Plug-In . SVG Version: 6.00 Build 0)  -->
<svg version="1.1" id="Layer_1" xmlns="http://www.w3.org/2000/svg" xmlns:xlink="http://www.w3.org/1999/xlink" x="0px" y="0px"
	 viewBox="0 0 30 30" style="enable-background:new 0 0 30 30;" xml:space="preserve">
<style type="text/css">
	.st0{fill:#FFFFFF;}
	.st1{fill:#685F4E;}
</style>
<g>
	<path class="st0" d="M15,30c-2.7,0-5.4,0-8.1,0c-0.1,0-0.3,0-0.4,0c-0.3,0-0.4-0.2-0.4-0.5c0-0.3,0.2-0.4,0.5-0.5
		c0.3,0,0.5,0,0.8,0c1.1,0,2.2,0,3.3,0c0.3,0,0.4-0.1,0.4-0.4c0-1.3,0-2.6,0-3.9c0-0.4-0.2-0.6-0.6-0.6c-0.9,0-1.8,0-2.8,0
		c-2.6,0-4.5-1.9-4.6-4.5c0-2.8,0-5.7,0-8.5c0-1.7,1.4-3,3-3c1.6,0,2.9,1.3,2.9,3c0,1.6,0,3.2,0,4.8c0,0.4,0.1,0.8,0.5,1
		c0.6,0.3,1.4,0,1.4-0.8c0-0.3,0-0.5,0-0.8c0-3.7,0-7.4,0-11.1c0-1.6,0.7-2.8,2.1-3.6c1.4-0.7,2.8-0.7,4.1,0.2
		C18.4,1.6,19,2.7,19,4.1c0,2.8,0,5.7,0,8.5c0,0.1,0,0.2,0,0.3c0,0.6,0.5,1.1,1,1.1c0.5,0,1-0.4,1-1.1c0-1.6,0-3.3,0-4.9
		c0-1.5,1.1-2.8,2.6-2.9c1.5-0.2,2.9,0.8,3.3,2.2c0.1,0.4,0.1,0.7,0.1,1.1c0,2.7,0,5.4,0,8.1c0,2.5-2,4.5-4.5,4.5
		c-0.9,0-1.8,0-2.8,0c-0.6,0-0.7,0.1-0.7,0.7c0,2.3,0,4.5,0,6.8c0,0.3,0.1,0.4,0.4,0.4c1.3,0,2.5,0,3.8,0c0.4,0,0.7,0.1,0.7,0.5
		c0,0.4-0.3,0.5-0.7,0.5C20.5,30,17.7,30,15,30z M12,10.2c0,1.9,0,3.8,0,5.7c0,0.3,0,0.6-0.1,0.9c-0.4,0.9-1.3,1.4-2.2,1.2
		c-1-0.2-1.7-1-1.7-2c0-1.6,0-3.3,0-4.9c0-0.7-0.3-1.3-0.9-1.7C6.4,9.1,5.6,9,4.9,9.5c-0.6,0.4-0.8,1-0.8,1.7c0,2.8,0,5.5,0,8.3
		c0,2.1,1.5,3.6,3.6,3.6c0.9,0,1.8,0,2.7,0c0.9,0,1.7,0.6,1.6,1.6c0,1.3,0,2.5,0,3.8c0,0.4,0.1,0.6,0.6,0.6c1.6,0,3.2,0,4.8,0
		c0.4,0,0.6-0.1,0.6-0.6c0-2.2,0-4.4,0-6.6c0-1.3,0.6-1.8,1.9-1.8c0.9,0,1.8,0,2.8,0c1.7,0,3.3-1.5,3.4-3.1c0-2.9,0-5.9,0-8.8
		c0-0.8-0.6-1.5-1.3-1.8c-0.7-0.3-1.5,0-2.1,0.6C22,7.3,22,8,22,8.6c0,1.5,0,3,0,4.5c0,0.9-0.5,1.5-1.3,1.8
		c-1.4,0.5-2.8-0.5-2.8-2.1c0-3,0-6,0-9c0-1.7-1.7-3.1-3.4-2.7C12.9,1.6,12,2.7,12,4.4C12,6.3,12,8.3,12,10.2z"/>
	<path class="st1" d="M12,10.2c0-2,0-3.9,0-5.9c0-1.6,0.9-2.8,2.5-3.1c1.7-0.4,3.4,1,3.4,2.7c0,3,0,6,0,9c0,1.6,1.4,2.6,2.8,2.1
		c0.8-0.3,1.2-1,1.3-1.8c0-1.5,0-3,0-4.5c0-0.7,0-1.3,0.5-1.8c0.5-0.6,1.4-0.8,2.1-0.6c0.8,0.3,1.3,1,1.3,1.8c0,2.9,0,5.9,0,8.8
		c0,1.7-1.6,3.1-3.4,3.1c-0.9,0-1.8,0-2.8,0c-1.3,0-1.9,0.6-1.9,1.8c0,2.2,0,4.4,0,6.6c0,0.4-0.1,0.6-0.6,0.6c-1.6,0-3.2,0-4.8,0
		c-0.5,0-0.6-0.2-0.6-0.6c0-1.3,0-2.5,0-3.8c0-1-0.8-1.6-1.6-1.6c-0.9,0-1.8,0-2.7,0c-2.1,0-3.6-1.5-3.6-3.6c0-2.8,0-5.5,0-8.3
		c0-0.7,0.2-1.3,0.8-1.7C5.6,9,6.4,9.1,7.1,9.4c0.7,0.3,0.9,1,0.9,1.7c0,1.6,0,3.3,0,4.9c0,1,0.6,1.8,1.7,2c0.9,0.2,1.8-0.3,2.2-1.2
		C12,16.6,12,16.3,12,16C12,14.1,12,12.2,12,10.2z"/>
</g>
</svg>
