<svg xmlns="http://www.w3.org/2000/svg" viewBox="0 0 125.09 125.09"><defs><style>.cls-1{fill:#fff;}</style></defs><title>Asset 1</title><g id="Layer_2" data-name="Layer 2"><g id="Layer_1-2" data-name="Layer 1"><g id="Layer_2-2" data-name="Layer 2"><rect class="cls-1" x="53.73" y="54.16" width="17.6" height="17" transform="translate(-16.66 23.1) rotate(-18.52)"/><rect class="cls-1" x="53.73" y="54.16" width="17.6" height="17" transform="translate(-16.66 23.1) rotate(-18.52)"/><path class="cls-1" d="M119.84,45.34c-12.9-43-31.5-53-74.5-40.1s-53,31.5-40.1,74.5,31.5,53,74.5,40.1S132.74,88.34,119.84,45.34Zm-21.7,27.9L90,75.94l2.8,8.4a6.49,6.49,0,0,1-4.1,8.2,5.58,5.58,0,0,1-2.2.3,6.67,6.67,0,0,1-6-4.4L77.74,80,61,85.64l2.8,8.4a6.49,6.49,0,0,1-4.1,8.2,5.58,5.58,0,0,1-2.2.3,6.67,6.67,0,0,1-6-4.4l-2.8-8.4-8.1,2.7a5.58,5.58,0,0,1-2.2.3,6.67,6.67,0,0,1-6-4.4,6.49,6.49,0,0,1,4.1-8.2l8.1-2.7-5.4-16.1L31.14,64a5.58,5.58,0,0,1-2.2.3,6.67,6.67,0,0,1-6-4.4,6.49,6.49,0,0,1,4.1-8.2l8.1-2.7-2.8-8.4a6.48,6.48,0,0,1,12.3-4.1l2.8,8.4,16.7-5.6-2.8-8.4a6.48,6.48,0,1,1,12.3-4.1l2.8,8.4,8.1-2.7a6.48,6.48,0,0,1,4.1,12.3l-8.1,2.7,5.4,16.1,8.1-2.7a6.48,6.48,0,0,1,4.1,12.3Z"/></g></g></g></svg>